<svg xmlns="http://www.w3.org/2000/svg" role="img" aria-label="Rivnay lab" viewBox="-94.24 3.65 1408.86 327.37">
<g transform="translate(-87.317 10.574) scale(0.45285)">
<path fill="#030505" d="M 80.03,165.723 L 80.03,396.895 L 80.03,522.726 L 5.176,522.726 L 5.176,396.895 L 5.176,54.048 Z"/>
<path fill="#030505" d="M 176.711,241.227 C 34.984,154.797 26.016,54.048 26.016,54.048 L 5.189,54.048 C 5.189,54.048 5.65,57.406 5.602,63.418 C 5.372,92.383 16.548,182.956 154.377,256.413"/>
<path fill="#030505" d="M 431.503,522.726 C 426.547,470.126 397.091,364.388 235.101,273.361 C 229.667,270.307 224.084,267.27 218.347,264.252 L 200.203,278.094 C 206.56,280.766 212.603,283.638 218.347,286.691 C 326.169,343.998 328.513,465.043 324.081,522.726"/>
<path fill="#030505" d="M 5.19,24.279 L 148.809,24.279 C 148.809,24.279 177.764,25.279 178.214,25.279 C 276.46,25.279 302.037,86.796 302.037,122.505 C 302.037,158.214 299.762,199.025 219.417,250.038 C 139.071,301.05 80.407,352.889 51.074,387.323 L 51.074,426.032 L 74.074,424.713 C 88.875,396.457 154.375,311.162 243.648,260.832 C 332.92,210.503 377.658,160.765 377.658,109.752 C 377.658,67.647 319.452,5.176 205.996,5.176 L 5.19,5.176 Z"/>
</g>
<path fill="#030505" d="M 134.139,98.338 L 171.337,98.338 L 171.337,247.283 L 134.139,247.283 L 134.139,98.338 M 128.865,47.933 C 128.865,41.957 131.086,36.755 135.529,32.328 C 139.973,27.897 145.605,25.682 152.426,25.682 C 159.247,25.682 164.981,27.795 169.63,32.02 C 174.281,36.243 176.607,41.547 176.607,47.933 C 176.607,54.319 174.281,59.624 169.63,63.85 C 164.981,68.072 159.247,70.184 152.426,70.184 C 145.605,70.184 139.973,67.97 135.529,63.542 C 131.086,59.112 128.865,53.909 128.865,47.933 Z"/>
<path fill="#030505" d="M 193.968,98.338 L 234.577,98.338 L 274.254,202.602 L 274.879,202.602 L 314.868,98.338 L 352.998,98.338 L 294.405,247.283 L 254.728,247.283 L 193.968,98.338 Z"/>
<path fill="#030505" d="M 375.004,98.338 L 410.349,98.338 L 410.349,122.136 L 410.968,122.136 C 414.481,114.738 419.853,108.317 427.084,102.874 C 434.318,97.428 444.137,94.705 456.539,94.705 C 466.457,94.705 474.877,96.359 481.799,99.667 C 488.724,102.975 494.356,107.318 498.695,112.694 C 503.034,118.068 506.134,124.269 507.995,131.298 C 509.855,138.327 510.785,145.667 510.785,153.317 L 510.785,247.283 L 473.587,247.283 L 473.587,171.803 C 473.587,167.663 473.38,163.055 472.967,157.981 C 472.554,152.907 471.469,148.144 469.713,143.691 C 467.956,139.239 465.218,135.511 461.496,132.509 C 457.775,129.507 452.712,128.006 446.308,128.006 C 440.108,128.006 434.889,129.042 430.651,131.114 C 426.416,133.182 422.903,135.978 420.112,139.5 C 417.321,143.02 415.306,147.058 414.067,151.615 C 412.827,156.168 412.208,160.93 412.208,165.9 L 412.208,247.283 L 375.004,247.283 L 375.004,98.338 Z"/>
<path fill="#030505" d="M 645.945,226.778 L 645.018,226.778 C 639.645,235.235 632.824,241.374 624.555,245.193 C 616.29,249.008 607.197,250.916 597.276,250.916 C 590.455,250.916 583.79,249.987 577.281,248.13 C 570.773,246.273 564.986,243.487 559.921,239.772 C 554.857,236.057 550.775,231.413 547.675,225.841 C 544.575,220.269 543.025,213.77 543.025,206.343 C 543.025,198.292 544.471,191.43 547.363,185.757 C 550.258,180.081 554.133,175.335 558.99,171.519 C 563.846,167.7 569.476,164.656 575.881,162.385 C 582.289,160.115 588.954,158.412 595.876,157.277 C 602.801,156.141 609.776,155.419 616.802,155.11 C 623.831,154.801 630.446,154.647 636.646,154.647 L 645.945,154.647 L 645.945,150.598 C 645.945,141.251 642.741,134.24 636.333,129.567 C 629.929,124.893 621.766,122.557 611.845,122.557 C 603.993,122.557 596.656,123.952 589.835,126.743 C 583.018,129.531 577.128,133.301 572.168,138.053 L 552.637,118.536 C 560.902,110.075 570.563,103.989 581.619,100.277 C 592.678,96.563 604.097,94.705 615.875,94.705 C 626.417,94.705 635.304,95.894 642.535,98.272 C 649.769,100.65 655.762,103.699 660.514,107.42 C 665.27,111.141 668.939,115.431 671.522,120.291 C 674.104,125.147 675.963,130.057 677.099,135.021 C 678.237,139.981 678.909,144.789 679.114,149.443 C 679.322,154.095 679.426,158.177 679.426,161.69 L 679.426,247.283 L 645.945,247.283 L 645.945,226.778 M 643.774,180.682 L 636.026,180.682 C 630.857,180.682 625.069,180.888 618.661,181.301 C 612.257,181.715 606.213,182.695 600.53,184.244 C 594.848,185.789 590.043,188.056 586.117,191.046 C 582.191,194.035 580.228,198.212 580.228,203.576 C 580.228,207.083 581.002,210.022 582.551,212.393 C 584.102,214.765 586.117,216.775 588.596,218.424 C 591.078,220.073 593.869,221.259 596.969,221.981 C 600.068,222.703 603.168,223.065 606.268,223.065 C 619.081,223.065 628.535,220.023 634.631,213.94 C 640.726,207.854 643.774,199.552 643.774,189.035 L 643.774,180.682 Z"/>
<path fill="#030505" d="M 699.268,98.338 L 740.185,98.338 L 781.725,201.67 L 782.345,201.67 L 819.548,98.338 L 858.298,98.338 L 787.927,279.245 C 785.24,286.278 782.295,292.432 779.091,297.708 C 775.887,302.983 772.115,307.431 767.776,311.051 C 763.437,314.672 758.322,317.36 752.431,319.117 C 746.541,320.876 739.463,321.756 731.197,321.756 C 721.485,321.756 711.978,320.444 702.679,317.82 L 707.329,284.43 C 710.22,285.464 713.268,286.342 716.472,287.065 C 719.676,287.79 722.93,288.152 726.235,288.152 C 730.783,288.152 734.606,287.738 737.706,286.908 C 740.806,286.082 743.441,284.791 745.61,283.034 C 747.78,281.278 749.588,279.003 751.036,276.209 C 752.483,273.418 754.033,270.059 755.686,266.133 L 762.814,248.452 L 699.268,98.338 Z"/>
<path fill="#030505" d="M 925.295,12.924 L 943.894,12.924 L 943.894,247.283 L 925.295,247.283 L 925.295,12.924 Z"/>
<path fill="#030505" d="M 1107.885,187.191 C 1107.885,194.21 1107.937,200.509 1108.041,206.088 C 1108.145,211.663 1108.3,216.825 1108.504,221.575 C 1108.713,226.324 1108.971,230.764 1109.28,234.895 C 1109.592,239.023 1110.058,243.152 1110.676,247.283 L 1093.316,247.283 C 1092.076,240.242 1091.457,232.475 1091.457,223.982 L 1090.837,223.982 C 1085.464,233.269 1078.799,240.081 1070.842,244.417 C 1062.886,248.75 1052.811,250.916 1040.616,250.916 C 1034.417,250.916 1028.319,250.14 1022.325,248.589 C 1016.333,247.04 1010.961,244.562 1006.209,241.153 C 1001.456,237.741 997.581,233.35 994.582,227.979 C 991.586,222.606 990.088,216.095 990.088,208.448 C 990.088,197.493 992.877,188.813 998.456,182.408 C 1004.037,176 1010.909,171.196 1019.07,167.995 C 1027.234,164.791 1035.914,162.724 1045.11,161.794 C 1054.306,160.864 1062.418,160.399 1069.447,160.399 L 1091.145,160.399 L 1091.145,151.742 C 1091.145,139.371 1087.321,130.507 1079.674,125.149 C 1072.027,119.788 1062.416,117.108 1050.843,117.108 C 1034.312,117.108 1019.743,122.481 1007.136,133.228 L 996.285,120.518 C 1003.106,113.927 1011.579,108.937 1021.705,105.547 C 1031.831,102.154 1041.543,100.457 1050.843,100.457 C 1068.203,100.457 1082.05,104.536 1092.384,112.694 C 1102.718,120.849 1107.885,134.013 1107.885,152.187 L 1107.885,187.191 M 1070.686,175.233 C 1062.831,175.233 1055.236,175.751 1047.901,176.789 C 1040.566,177.823 1033.953,179.583 1028.062,182.068 C 1022.172,184.553 1017.47,187.867 1013.957,192.011 C 1010.444,196.154 1008.687,201.332 1008.687,207.545 C 1008.687,211.897 1009.668,215.782 1011.629,219.2 C 1013.594,222.615 1016.126,225.411 1019.226,227.587 C 1022.326,229.759 1025.787,231.417 1029.609,232.558 C 1033.434,233.697 1037.31,234.266 1041.236,234.266 C 1051.157,234.266 1059.32,232.817 1065.724,229.919 C 1072.132,227.017 1077.247,223.236 1081.069,218.576 C 1084.894,213.915 1087.529,208.633 1088.973,202.729 C 1090.421,196.826 1091.145,190.871 1091.145,184.863 L 1091.145,175.233 L 1070.686,175.233 Z"/>
<path fill="#030505" d="M 1153.457,13 L 1172.056,13 L 1172.056,129.25 L 1172.676,129.25 C 1175.57,124.296 1179.188,120.013 1183.527,116.403 C 1187.866,112.789 1192.566,109.796 1197.628,107.425 C 1202.692,105.05 1208.014,103.295 1213.592,102.16 C 1219.174,101.025 1224.651,100.457 1230.025,100.457 C 1240.98,100.457 1251.055,102.315 1260.251,106.029 C 1269.45,109.744 1277.407,114.955 1284.124,121.663 C 1290.841,128.37 1296.059,136.317 1299.777,145.503 C 1303.498,154.686 1305.358,164.747 1305.358,175.687 C 1305.358,186.626 1303.498,196.689 1299.777,205.875 C 1296.059,215.058 1290.841,223.003 1284.124,229.711 C 1277.407,236.418 1269.45,241.629 1260.251,245.344 C 1251.055,249.059 1240.98,250.916 1230.025,250.916 C 1224.651,250.916 1219.174,250.349 1213.592,249.213 C 1208.014,248.078 1202.692,246.325 1197.628,243.953 C 1192.566,241.579 1187.866,238.586 1183.527,234.975 C 1179.188,231.361 1175.57,227.077 1172.676,222.123 L 1172.056,222.123 L 1172.056,247.283 L 1153.457,247.283 L 1153.457,13 M 1170.197,175.687 C 1170.197,183.744 1171.747,191.337 1174.847,198.467 C 1177.947,205.597 1182.183,211.797 1187.557,217.067 C 1192.93,222.333 1199.233,226.516 1206.464,229.616 C 1213.698,232.716 1221.551,234.266 1230.025,234.266 C 1238.706,234.266 1246.56,232.716 1253.586,229.616 C 1260.612,226.516 1266.605,222.333 1271.566,217.067 C 1276.526,211.797 1280.298,205.597 1282.88,198.467 C 1285.463,191.337 1286.754,183.744 1286.754,175.687 C 1286.754,167.629 1285.463,160.036 1282.88,152.906 C 1280.298,145.776 1276.526,139.578 1271.566,134.311 C 1266.605,129.042 1260.612,124.857 1253.586,121.757 C 1246.56,118.657 1238.706,117.108 1230.025,117.108 C 1221.551,117.108 1213.698,118.657 1206.464,121.757 C 1199.233,124.857 1192.93,129.042 1187.557,134.311 C 1182.183,139.578 1177.947,145.776 1174.847,152.906 C 1171.747,160.036 1170.197,167.629 1170.197,175.687 Z"/>
</svg>
